<?xml version="1.0" encoding="iso-8859-1"?>
<!-- Generator: Adobe Illustrator 19.0.0, SVG Export Plug-In . SVG Version: 6.00 Build 0)  -->
<svg version="1.1" id="Layer_1" xmlns="http://www.w3.org/2000/svg" xmlns:xlink="http://www.w3.org/1999/xlink" x="0px" y="0px"
	 viewBox="0 0 511.989 511.989" style="enable-background:new 0 0 511.989 511.989;" xml:space="preserve">
<path style="fill:#A0D468;" d="M501.333,85.341H10.664c-5.89,0-10.663,4.765-10.663,10.656v320c0,5.875,4.773,10.656,10.664,10.656
	h490.668c5.875,0,10.656-4.781,10.656-10.656v-320C511.989,90.106,507.208,85.341,501.333,85.341z"/>
<rect x="10.664" y="191.997" style="fill:#CCD1D9;" width="63.999" height="128"/>
<g>
	<rect x="245.335" y="85.337" style="fill:#8CC153;" width="21.327" height="341.31"/>
	<path style="fill:#8CC153;" d="M37.539,106.105c4.984-9.968,5.125-19.687,5.125-20.765H21.336l0,0h-0.008
		c-0.023,0.719-0.312,6.421-3.125,11.718c-3.484,6.562-9.266,9.609-18.203,9.609v21.328
		C17.149,127.996,30.484,120.23,37.539,106.105z"/>
	<path style="fill:#8CC153;" d="M20.774,388.778c-9.969-4.999-19.695-5.124-20.773-5.124v21.312l0,0v0.031
		c0.734,0,6.429,0.312,11.726,3.125c6.555,3.469,9.609,9.25,9.609,18.188h21.328C42.664,409.153,34.891,395.841,20.774,388.778z"/>
	<path style="fill:#8CC153;" d="M474.459,106.105c-5-9.968-5.125-19.687-5.125-20.765h21.312l0,0h0.016
		c0.016,0.719,0.312,6.421,3.124,11.718c3.484,6.562,9.266,9.609,18.203,9.609v21.328
		C494.833,127.996,481.506,120.23,474.459,106.105z"/>
	<path style="fill:#8CC153;" d="M491.209,388.778c9.968-4.999,19.702-5.124,20.78-5.124v21.312l0,0v0.031
		c-0.734,0-6.438,0.312-11.719,3.125c-6.562,3.469-9.624,9.25-9.624,18.188h-21.312
		C469.334,409.153,477.099,395.841,491.209,388.778z"/>
</g>
<path style="fill:#434A54;" d="M255.995,181.338c-41.171,0-74.663,33.484-74.663,74.655c0,41.163,33.491,74.662,74.663,74.662
	c41.171,0,74.654-33.499,74.654-74.662C330.649,214.822,297.166,181.338,255.995,181.338z"/>
<g>
	<path style="fill:#E6E9ED;" d="M319.994,255.993c0-3.188-0.234-6.344-0.688-9.406h-32.375l-10.5,32.319l27.219,19.781
		C313.807,287.375,319.994,272.406,319.994,255.993z"/>
	<path style="fill:#E6E9ED;" d="M267.697,193.072l-9.578,29.484l27.5,19.984l25.719-18.687
		C302.135,208.025,286.338,196.51,267.697,193.072z"/>
	<path style="fill:#E6E9ED;" d="M200.644,223.853l25.718,18.687l27.507-19.984l-9.578-29.484
		C225.652,196.51,209.855,208.025,200.644,223.853z"/>
	<path style="fill:#E6E9ED;" d="M235.558,278.906l-10.508-32.319h-32.366c-0.453,3.062-0.688,6.219-0.688,9.406
		c0,16.413,6.179,31.382,16.335,42.694L235.558,278.906z"/>
	<path style="fill:#E6E9ED;" d="M238.995,281.406l-10.507,32.343l0.188,0.125c8.281,3.938,17.546,6.125,27.32,6.125
		c9.772,0,19.03-2.188,27.327-6.125l0.172-0.125l-10.5-32.343H238.995z"/>
	<path style="fill:#E6E9ED;" d="M74.663,181.338H10.664C4.773,181.338,0,186.103,0,191.994v128.005
		c0,5.875,4.773,10.656,10.664,10.656h63.999c5.891,0,10.672-4.781,10.672-10.656V191.993
		C85.335,186.103,80.554,181.338,74.663,181.338z M21.336,245.337H32v21.328H21.336V245.337z M53.335,245.337h10.664v21.328H53.335
		V245.337z M63.999,223.993H53.335v-21.328h10.664V223.993z M32,202.666v21.328H21.336v-21.328H32z M21.336,288H32v21.343H21.336
		V288z M53.335,309.343V288h10.664v21.343H53.335z"/>
</g>
<rect x="437.335" y="191.997" style="fill:#CCD1D9;" width="63.999" height="128"/>
<path style="fill:#E6E9ED;" d="M501.333,181.338h-63.999c-5.906,0-10.687,4.765-10.687,10.656v128.005
	c0,5.875,4.78,10.656,10.687,10.656h63.999c5.875,0,10.656-4.781,10.656-10.656V191.993
	C511.989,186.103,507.208,181.338,501.333,181.338z M447.99,245.337h10.656v21.328H447.99V245.337z M479.99,245.337h10.656v21.328
	H479.99V245.337z M490.646,223.993H479.99v-21.328h10.656V223.993z M458.646,202.666v21.328H447.99v-21.328H458.646z M447.99,288
	h10.656v21.343H447.99V288z M479.99,309.343V288h10.656v21.343H479.99z"/>
<g>
</g>
<g>
</g>
<g>
</g>
<g>
</g>
<g>
</g>
<g>
</g>
<g>
</g>
<g>
</g>
<g>
</g>
<g>
</g>
<g>
</g>
<g>
</g>
<g>
</g>
<g>
</g>
<g>
</g>
</svg>
