<svg height="512pt" viewBox="0 -86 512 512" width="512pt" xmlns="http://www.w3.org/2000/svg"><path d="m512 47.394531v245.210938c0 26.171875-21.21875 47.394531-47.390625 47.394531h-417.21875c-26.171875 0-47.390625-21.222656-47.390625-47.394531v-245.210938c0-26.171875 21.21875-47.394531 47.390625-47.394531h417.21875c26.171875 0 47.390625 21.222656 47.390625 47.394531zm0 0" fill="#e1f5fe"/><path d="m464.613281 0h-30.90625c26.171875 0 47.386719 21.21875 47.386719 47.394531v245.210938c0 26.175781-21.214844 47.394531-47.386719 47.394531h30.90625c26.171875 0 47.386719-21.21875 47.386719-47.394531v-245.210938c0-26.175781-21.214844-47.394531-47.386719-47.394531zm0 0" fill="#b3e5fc"/><g fill="#f06292"><path d="m308.539062 170c0 29.015625-23.523437 52.539062-52.539062 52.539062s-52.539062-23.523437-52.539062-52.539062 23.523437-52.539062 52.539062-52.539062 52.539062 23.523437 52.539062 52.539062zm0 0"/><path d="m143.195312 59.769531c0 14.226563-11.53125 25.757813-25.753906 25.757813s-25.753906-11.53125-25.753906-25.757813c0-14.222656 11.53125-25.753906 25.753906-25.753906s25.753906 11.53125 25.753906 25.753906zm0 0"/><path d="m420.3125 59.769531c0 14.226563-11.53125 25.757813-25.753906 25.757813s-25.753906-11.53125-25.753906-25.757813c0-14.222656 11.53125-25.753906 25.753906-25.753906s25.753906 11.53125 25.753906 25.753906zm0 0"/><path d="m143.195312 280.230469c0 14.222656-11.53125 25.753906-25.753906 25.753906s-25.753906-11.53125-25.753906-25.753906c0-14.226563 11.53125-25.757813 25.753906-25.757813s25.753906 11.53125 25.753906 25.757813zm0 0"/><path d="m420.3125 280.230469c0 14.222656-11.53125 25.753906-25.753906 25.753906s-25.753906-11.53125-25.753906-25.753906c0-14.226563 11.53125-25.757813 25.753906-25.757813s25.753906 11.53125 25.753906 25.757813zm0 0"/></g><path d="m51.738281 0h15v340h-15zm0 0" fill="#4fc3f7"/><path d="m445.261719 0h15v340h-15zm0 0" fill="#4fc3f7"/><path d="m248.5 0h15v340h-15zm0 0" fill="#4fc3f7"/><path d="m168.148438 0h15v340h-15zm0 0" fill="#4fc3f7"/><path d="m328.851562 0h15v340h-15zm0 0" fill="#4fc3f7"/><path d="m59.234375 211.207031h-22.382813c-4.707031 0-8.523437-3.816406-8.523437-8.523437v-65.367188c0-4.707031 3.816406-8.523437 8.523437-8.523437h22.382813zm0 0" fill="#fdd835"/><path d="m59.234375 121.292969h-22.382813c-8.832031 0-16.019531 7.1875-16.019531 16.023437v65.367188c0 8.835937 7.1875 16.023437 16.019531 16.023437h22.382813c4.144531 0 7.5-3.359375 7.5-7.5v-82.414062c0-4.144531-3.355469-7.5-7.5-7.5zm-7.5 82.414062h-14.882813c-.5625 0-1.019531-.460937-1.019531-1.023437v-65.367188c0-.5625.457031-1.023437 1.019531-1.023437h14.882813zm0 0" fill="#455a64"/><path d="m452.765625 128.792969h22.382813c4.707031 0 8.523437 3.816406 8.523437 8.523437v65.367188c0 4.707031-3.816406 8.523437-8.523437 8.523437h-22.382813zm0 0" fill="#fdd835"/><path d="m475.148438 218.707031h-22.382813c-4.144531 0-7.5-3.355469-7.5-7.5v-82.414062c0-4.144531 3.355469-7.5 7.5-7.5h22.382813c8.832031 0 16.019531 7.1875 16.019531 16.023437v65.367188c.003906 8.835937-7.1875 16.023437-16.019531 16.023437zm-14.882813-15h14.882813c.5625 0 1.023437-.460937 1.023437-1.023437v-65.367188c0-.5625-.460937-1.023437-1.023437-1.023437h-14.882813zm0 0" fill="#455a64"/></svg>