<?xml version="1.0" encoding="iso-8859-1"?>
<!-- Generator: Adobe Illustrator 19.0.0, SVG Export Plug-In . SVG Version: 6.00 Build 0)  -->
<svg version="1.1" id="Capa_1" xmlns="http://www.w3.org/2000/svg" xmlns:xlink="http://www.w3.org/1999/xlink" x="0px" y="0px"
	 viewBox="0 0 512 512" style="enable-background:new 0 0 512 512;" xml:space="preserve">
<path style="fill:#0387D8;" d="M0,207.633c5.831,0.627,12.319,0.993,19.707,0.993c61.534,0,61.534-25.119,123.068-25.119
	s61.534,25.119,123.068,25.119c61.544,0,61.544-25.119,123.079-25.119S450.455,208.626,512,208.626v73.54
	c-61.534,0-61.534,25.109-123.068,25.109s-61.534-25.109-123.068-25.109s-61.534,25.109-123.068,25.109
	c-61.544,0-61.544-25.109-123.079-25.109c-7.387,0-13.887,0.366-19.717,0.993"/>
<path style="fill:#F9DCA2;" d="M359.445,240.37l-42.841,42.841l-157.884,5.663l-45.871,1.651l1.923-16.635
	c28.756-38.734,62.318-59.486,91.878-70.489l17.126-3.793l34.816-7.722c15.036-1.181,24.43-0.021,24.43-0.021L359.445,240.37z"/>
<path style="fill:#E5C691;" d="M227.788,224.696c0,0-58.514,15.673-68.963,63.739c-0.031,0.146-0.063,0.293-0.104,0.439
	l-45.871,1.651l1.923-16.635c28.756-38.734,62.318-59.486,91.878-70.489l17.126-3.793L227.788,224.696z"/>
<path style="fill:#54BBEF;" d="M512,359.275c-61.534,0-61.534,25.109-123.068,25.109s-61.534-25.109-123.068-25.109
	s-61.534,25.109-123.068,25.109c-61.544,0-61.544-25.109-123.079-25.109c-7.387,0-13.887,0.366-19.717,0.993V251.937
	c5.831-0.627,12.33-0.993,19.717-0.993c61.534,0,61.534,25.109,123.079,25.109c61.534,0,61.534-25.109,123.068-25.109
	s61.534,25.109,123.068,25.109S450.466,250.944,512,250.944"/>
<path style="fill:#0387D8;" d="M0,342.498c5.831,0.627,12.319,0.993,19.707,0.993c61.534,0,61.534-25.119,123.068-25.119
	s61.534,25.119,123.068,25.119c61.544,0,61.544-25.119,123.079-25.119S450.455,343.491,512,343.491v42.318
	c-61.534,0-61.534,25.109-123.068,25.109s-61.534-25.109-123.068-25.109s-61.534,25.109-123.068,25.109
	c-61.544,0-61.544-25.109-123.079-25.109c-7.387,0-13.887,0.366-19.717,0.993"/>
<circle style="fill:#F9DCA2;" cx="351.587" cy="198.521" r="68.884"/>
<path style="fill:#E5C691;" d="M321.365,198.519c0-31.329,20.923-57.756,49.553-66.114c-6.136-1.791-12.617-2.769-19.331-2.769
	c-38.043,0-68.884,30.84-68.884,68.884s30.84,68.884,68.884,68.884c6.713,0,13.195-0.978,19.331-2.769
	C342.288,256.274,321.365,229.848,321.365,198.519z"/>
<path style="fill:#7FDD36;" d="M400.297,247.224l-74.094-74.094l-23.322-23.322c18.401-18.401,44.617-24.21,67.96-17.439
	c10.783,3.124,20.95,8.944,29.456,17.439C427.193,176.715,427.193,220.329,400.297,247.224z"/>
<path style="fill:#70C129;" d="M370.915,132.401c-20.438,5.966-36.937,21.138-44.711,40.73l-23.322-23.322
	c18.401-18.401,44.617-24.21,67.96-17.439C370.862,132.39,370.894,132.39,370.915,132.401z"/>
<g>
	<circle style="fill:#42C6AC;" cx="339.655" cy="186.588" r="16.663"/>
	<circle style="fill:#42C6AC;" cx="363.363" cy="210.297" r="16.663"/>
</g>
<path style="fill:#F9DCA2;" d="M128.743,155.265l57.54-1.316l25.985,63.112c5.595,13.588,21.43,20.457,34.909,14.606
	c13.066-5.673,19.238-20.791,13.79-34.021l-33.076-80.334c-0.659-1.602-1.466-3.114-2.4-4.52
	c-4.919-7.41-13.369-11.932-22.496-11.702l-75.569,1.768c-14.472,0.364-25.908,12.39-25.545,26.862l0,0
	C102.245,144.192,114.272,155.63,128.743,155.265z"/>
<path style="fill:#E5C691;" d="M259.716,219.128c-13.479,5.851-29.314-1.018-34.909-14.606l-25.985-63.112l-57.54,1.316
	c-14.472,0.364-26.499-11.073-26.862-25.545l0,0c-0.107-4.231,0.802-8.249,2.494-11.831c-9.104,4.296-15.301,13.66-15.033,24.37l0,0
	c0.364,14.472,12.39,25.908,26.862,25.545l57.54-1.316l25.985,63.112c5.595,13.588,21.43,20.457,34.909,14.606
	c6.067-2.633,10.643-7.304,13.264-12.875C260.2,218.905,259.961,219.022,259.716,219.128z"/>
<path style="fill:#455256;" d="M321.894,234.266c-7.304,0-10.652-9.668-4.729-14.08c5.596-4.169,13.74,0.757,12.427,7.698
	C328.9,231.534,325.617,234.266,321.894,234.266z"/>
<g>
</g>
<g>
</g>
<g>
</g>
<g>
</g>
<g>
</g>
<g>
</g>
<g>
</g>
<g>
</g>
<g>
</g>
<g>
</g>
<g>
</g>
<g>
</g>
<g>
</g>
<g>
</g>
<g>
</g>
</svg>
