<svg id="icons" enable-background="new 0 0 64 64" height="512" viewBox="0 0 64 64" width="512" xmlns="http://www.w3.org/2000/svg"><g><g><path d="m37.98 57.998h-11.99v-3c0-1.1.89-1.99 2-1.99 1.1 0 2 .891 2 1.99h.01v-1c0-1.1.9-2 2-2s2 .9 2 2v1c0-1.1.9-1.99 2-1.99s2 .891 2 1.99h-.02z" fill="#a0d468"/></g><g><path d="m48 47.008c-7.73 0-14-6.27-14-14 0-7.729 6.27-28.01 14-28.01s14 20.28 14 28.01-6.27 14-14 14z" fill="#a0d468"/></g><g><path d="m16.01 45.008h-.01c-7.73 0-14-6.27-14-14 0-7.729 6.27-14 14-14s14 6.271 14 14c0 7.73-6.26 13.99-13.99 14z" fill="#a0d468"/></g><g><g><path d="m16.006 40.002c-.256 0-.512-.098-.707-.293-.391-.391-.391-1.023 0-1.414l4.997-4.998c.391-.391 1.023-.391 1.414 0s.391 1.023 0 1.414l-4.997 4.998c-.195.195-.451.293-.707.293z" fill="#844747"/></g><g><path d="m47.995 40.002c-.256 0-.512-.098-.707-.293l-4.997-4.998c-.391-.391-.391-1.023 0-1.414s1.023-.391 1.414 0l4.997 4.998c.391.391.391 1.023 0 1.414-.195.195-.451.293-.707.293z" fill="#844747"/></g><g><path d="m16.006 59.002c-.553 0-1-.447-1-1v-27c0-.553.447-1 1-1s1 .447 1 1v27c0 .553-.447 1-1 1z" fill="#965353"/></g><g><path d="m47.995 59.002c-.553 0-1-.447-1-1v-27c0-.553.447-1 1-1s1 .447 1 1v27c0 .553-.447 1-1 1z" fill="#965353"/></g><g><path d="m2.002 59.002c-.553 0-1-.447-1-1v-1c0-.553.447-1 1-1s1 .447 1 1v1c0 .553-.447 1-1 1z" fill="#8cc152"/></g><g><path d="m6 59.002c-.553 0-1-.447-1-1v-1c0-.553.447-1 1-1s1 .447 1 1v1c0 .553-.447 1-1 1z" fill="#8cc152"/></g><g><path d="m9.998 59.002c-.553 0-1-.447-1-1v-1c0-.553.447-1 1-1s1 .447 1 1v1c0 .553-.447 1-1 1z" fill="#8cc152"/></g><g><path d="m13.996 59.002c-.553 0-1-.447-1-1v-1c0-.553.447-1 1-1s1 .447 1 1v1c0 .553-.447 1-1 1z" fill="#8cc152"/></g><g><path d="m17.994 59.002c-.553 0-1-.447-1-1v-1c0-.553.447-1 1-1s1 .447 1 1v1c0 .553-.447 1-1 1z" fill="#8cc152"/></g><g><path d="m21.992 59.002c-.553 0-1-.447-1-1v-1c0-.553.447-1 1-1s1 .447 1 1v1c0 .553-.447 1-1 1z" fill="#8cc152"/></g><g><path d="m25.99 59.002c-.553 0-1-.447-1-1v-1c0-.553.447-1 1-1s1 .447 1 1v1c0 .553-.447 1-1 1z" fill="#8cc152"/></g><g><path d="m41.982 59.002c-.553 0-1-.447-1-1v-1c0-.553.447-1 1-1s1 .447 1 1v1c0 .553-.447 1-1 1z" fill="#8cc152"/></g><g><path d="m38 59.002c-.553 0-1-.447-1-1v-1c0-.553.447-1 1-1s1 .447 1 1v1c0 .553-.447 1-1 1z" fill="#8cc152"/></g><g><path d="m34 59.002c-.553 0-1-.447-1-1v-1c0-.553.447-1 1-1s1 .447 1 1v1c0 .553-.447 1-1 1z" fill="#8cc152"/></g><g><path d="m30 59.002c-.553 0-1-.447-1-1v-1c0-.553.447-1 1-1s1 .447 1 1v1c0 .553-.447 1-1 1z" fill="#8cc152"/></g><g><path d="m45.98 59.002c-.553 0-1-.447-1-1v-1c0-.553.447-1 1-1s1 .447 1 1v1c0 .553-.447 1-1 1z" fill="#8cc152"/></g><g><path d="m49.979 59.002c-.553 0-1-.447-1-1v-1c0-.553.447-1 1-1s1 .447 1 1v1c0 .553-.448 1-1 1z" fill="#8cc152"/></g><g><path d="m53.977 59.002c-.553 0-1-.447-1-1v-1c0-.553.447-1 1-1s1 .447 1 1v1c0 .553-.448 1-1 1z" fill="#8cc152"/></g><g><path d="m57.975 59.002c-.553 0-1-.447-1-1v-1c0-.553.447-1 1-1s1 .447 1 1v1c0 .553-.448 1-1 1z" fill="#8cc152"/></g><g><path d="m61.973 59.002c-.553 0-1-.447-1-1v-1c0-.553.447-1 1-1s1 .447 1 1v1c0 .553-.448 1-1 1z" fill="#8cc152"/></g><g><path d="m63 59.002h-62c-.553 0-1-.447-1-1s.447-1 1-1h62c.553 0 1 .447 1 1s-.447 1-1 1z" fill="#a0d468"/></g></g></g></svg>